<svg width="630" height="308" viewBox="0 0 630 308" fill="none" xmlns="http://www.w3.org/2000/svg">
<g clip-path="url(#clip0_2173_408)">
<path d="M696 339L2.00002 10" stroke="#393563" stroke-width="0.8"/>
<path d="M696 356L2.00002 27" stroke="#393563" stroke-width="0.8"/>
<path d="M696 373L2.00002 44" stroke="#393563" stroke-width="0.8"/>
<path d="M696 390L2.00002 61" stroke="#393563" stroke-width="0.8"/>
<path d="M696 407L2.00002 78" stroke="#393563" stroke-width="0.8"/>
<path d="M697 425L3.00002 96" stroke="#393563" stroke-width="0.8"/>
<path d="M696 321L23 2" stroke="#393563" stroke-width="0.8"/>
<path d="M2 341L695 9" stroke="#393563" stroke-width="0.8"/>
<path d="M2 294L695 -38" stroke="#393563" stroke-width="0.8"/>
<path d="M2 284L695 -48" stroke="#393563" stroke-width="0.8"/>
<path d="M2 274L695 -58" stroke="#393563" stroke-width="0.8"/>
<path d="M2 264L695 -68" stroke="#393563" stroke-width="0.8"/>
<path d="M2 254L695 -78" stroke="#393563" stroke-width="0.8"/>
<path d="M2 305L695 -27" stroke="#393563" stroke-width="0.8"/>
<path d="M2 317L695 -15" stroke="#393563" stroke-width="0.8"/>
<path d="M2 329L695 -3" stroke="#393563" stroke-width="0.8"/>
<path d="M84 339L696 44" stroke="#393563" stroke-width="0.8"/>
<path d="M110 339L696 58" stroke="#393563" stroke-width="0.8"/>
<path d="M56 339L695 32" stroke="#393563" stroke-width="0.8"/>
<path d="M30 339L695 20" stroke="#393563" stroke-width="0.8"/>
<path d="M160 339L695 70" stroke="#393563" stroke-width="0.8"/>
<path d="M185 339L695 86" stroke="#393563" stroke-width="0.8"/>
<path d="M696 303L56 -1" stroke="#393563" stroke-width="0.8"/>
<path d="M696 285L101 2" stroke="#393563" stroke-width="0.8"/>
<path d="M696 249L172 0" stroke="#393563" stroke-width="0.8"/>
<path d="M696 267L138 0" stroke="#393563" stroke-width="0.8"/>
<circle cx="348" cy="170" r="20.6" fill="white" stroke="#393563" stroke-width="0.8"/>
<path d="M135 339L320 249" stroke="#393563" stroke-width="0.8"/>
<circle cx="317" cy="154" r="83.6" fill="white" stroke="#393563" stroke-width="0.8"/>
<circle cx="316.5" cy="154.5" r="73.1" fill="white" stroke="#393563" stroke-width="0.8"/>
<circle cx="317" cy="154" r="62.6" fill="white" stroke="#393563" stroke-width="0.8"/>
<circle cx="316.5" cy="154.5" r="52.1" fill="white" stroke="#393563" stroke-width="0.8"/>
<circle cx="317" cy="154" r="41.6" fill="white" stroke="#393563" stroke-width="0.8"/>
<circle cx="317" cy="155" r="31.55" fill="white" stroke="#393563" stroke-width="0.9"/>
<circle cx="317" cy="154" r="9.5" fill="white" stroke="#393563"/>
<path d="M315 41.4004C381.505 41.4004 441.695 54.0401 485.243 74.459C528.823 94.8928 555.6 123.043 555.6 154C555.6 184.957 528.823 213.107 485.243 233.541C441.695 253.96 381.505 266.6 315 266.6C248.495 266.6 188.305 253.96 144.757 233.541C101.177 213.107 74.4004 184.957 74.4004 154C74.4004 123.043 101.177 94.8928 144.757 74.459C188.305 54.0401 248.495 41.4004 315 41.4004Z" stroke="#393563" stroke-width="0.8"/>
<path d="M315 32.4004C387.028 32.4004 452.218 46.048 499.386 68.0957C546.585 90.1585 575.6 120.558 575.6 154C575.6 187.442 546.585 217.841 499.386 239.904C452.218 261.952 387.028 275.6 315 275.6C242.972 275.6 177.782 261.952 130.614 239.904C83.4145 217.841 54.4004 187.442 54.4004 154C54.4004 120.558 83.4145 90.1585 130.614 68.0957C177.782 46.048 242.972 32.4004 315 32.4004Z" stroke="#393563" stroke-width="0.8"/>
<path d="M315 21.4004C393.655 21.4004 464.845 36.3352 516.355 60.4639C567.898 84.6076 599.6 117.882 599.6 154.5C599.6 191.118 567.898 224.392 516.355 248.536C464.845 272.665 393.655 287.6 315 287.6C236.345 287.6 165.155 272.665 113.645 248.536C62.1018 224.392 30.4004 191.118 30.4004 154.5C30.4004 117.882 62.1018 84.6076 113.645 60.4639C165.155 36.3352 236.345 21.4004 315 21.4004Z" stroke="#393563" stroke-width="0.8"/>
<path d="M315.5 52.4004C375.792 52.4004 430.356 63.865 469.833 82.3838C509.341 100.917 533.6 126.442 533.6 154.5C533.6 182.558 509.341 208.083 469.833 226.616C430.356 245.135 375.792 256.6 315.5 256.6C255.208 256.6 200.644 245.135 161.167 226.616C121.659 208.083 97.4004 182.558 97.4004 154.5C97.4004 126.442 121.659 100.917 161.167 82.3838C200.644 63.865 255.208 52.4004 315.5 52.4004Z" stroke="#393563" stroke-width="0.8"/>
</g>
<rect x="1" y="1" width="628" height="306" stroke="#5642F1" stroke-width="2"/>
<defs>
<clipPath id="clip0_2173_408">
<rect width="630" height="308" fill="white"/>
</clipPath>
</defs>
</svg>
