<svg width="364" height="309" viewBox="0 0 364 309" fill="none" xmlns="http://www.w3.org/2000/svg">
<g clip-path="url(#clip0_2173_449)">
<path d="M0 122L48.5 79.5L84 122L127.5 79.5L163 122L207 79.5L245.5 122L291.5 79.5L325.5 122L371 79.5L398.5 122" stroke="#393563"/>
<path d="M0 93.5L48.5 51L84 93.5L127.5 51L163 93.5L207 51L245.5 93.5L291.5 51L325.5 93.5L371 51L398.5 93.5" stroke="#393563"/>
<path d="M0 65L48.5 22.5L84 65L127.5 22.5L163 65L207 22.5L245.5 65L291.5 22.5L325.5 65L371 22.5L398.5 65" stroke="#393563"/>
<path d="M0 36.5L48.5 -6L84 36.5L127.5 -6L163 36.5L207 -6L245.5 36.5L291.5 -6L325.5 36.5L371 -6L398.5 36.5" stroke="#393563"/>
<path d="M0 150.5L48.5 108L84 150.5L127.5 108L163 150.5L207 108L245.5 150.5L291.5 108L325.5 150.5L371 108L398.5 150.5" stroke="#393563"/>
<path d="M0 179L48.5 136.5L84 179L127.5 136.5L163 179L207 136.5L245.5 179L291.5 136.5L325.5 179L371 136.5L398.5 179" stroke="#393563"/>
<path d="M0 207.5L48.5 165L84 207.5L127.5 165L163 207.5L207 165L245.5 207.5L291.5 165L325.5 207.5L371 165L398.5 207.5" stroke="#393563"/>
<path d="M0 236L48.5 193.5L84 236L127.5 193.5L163 236L207 193.5L245.5 236L291.5 193.5L325.5 236L371 193.5L398.5 236" stroke="#393563"/>
<path d="M0 264.5L48.5 222L84 264.5L127.5 222L163 264.5L207 222L245.5 264.5L291.5 222L325.5 264.5L371 222L398.5 264.5" stroke="#393563"/>
<path d="M0 293L48.5 250.5L84 293L127.5 250.5L163 293L207 250.5L245.5 293L291.5 250.5L325.5 293L371 250.5L398.5 293" stroke="#393563"/>
<path d="M0 321.5L48.5 279L84 321.5L127.5 279L163 321.5L207 279L245.5 321.5L291.5 279L325.5 321.5L371 279L398.5 321.5" stroke="#393563"/>
<path d="M0 350.5L48.5 308L84 350.5L127.5 308L163 350.5L207 308L245.5 350.5L291.5 308L325.5 350.5L371 308L398.5 350.5" stroke="#393563"/>
</g>
<rect x="1" y="1" width="362" height="307" stroke="#5642F1" stroke-width="2"/>
<defs>
<clipPath id="clip0_2173_449">
<rect width="364" height="309" fill="white"/>
</clipPath>
</defs>
</svg>
